<?xml version="1.0" encoding="iso-8859-1"?>
<!-- Generator: Adobe Illustrator 19.0.0, SVG Export Plug-In . SVG Version: 6.00 Build 0)  -->
<svg version="1.1" id="Capa_1" xmlns="http://www.w3.org/2000/svg" xmlns:xlink="http://www.w3.org/1999/xlink" x="0px" y="0px"
	 viewBox="0 0 409.6 409.6" style="enable-background:new 0 0 409.6 409.6;" xml:space="preserve">
<path style="fill:#777777;" d="M6.827,109.227c0-11.312,9.206-20.48,20.453-20.48h355.038c11.295,0,20.453,9.192,20.453,20.48
	c0,11.312-9.206,20.48-20.453,20.48H27.279C15.985,129.707,6.827,120.515,6.827,109.227z"/>
<path d="M382.321,136.533H27.279C12.24,136.533,0,124.283,0,109.227S12.24,81.92,27.279,81.92h355.041
	c15.039,0,27.279,12.25,27.279,27.307S397.36,136.533,382.321,136.533z M27.279,95.573c-7.513,0-13.626,6.124-13.626,13.653
	s6.113,13.653,13.626,13.653h355.041c7.513,0,13.626-6.124,13.626-13.653s-6.113-13.653-13.626-13.653H27.279z"/>
<path style="fill:#777777;" d="M6.827,204.8c0-11.312,9.206-20.48,20.453-20.48h355.038c11.295,0,20.453,9.192,20.453,20.48
	c0,11.312-9.206,20.48-20.453,20.48H27.279C15.985,225.28,6.827,216.088,6.827,204.8z"/>
<path d="M382.321,232.107H27.279C12.24,232.107,0,219.856,0,204.8s12.24-27.307,27.279-27.307h355.041
	c15.039,0,27.279,12.25,27.279,27.307S397.36,232.107,382.321,232.107z M27.279,191.147c-7.513,0-13.626,6.124-13.626,13.653
	s6.113,13.653,13.626,13.653h355.041c7.513,0,13.626-6.124,13.626-13.653s-6.113-13.653-13.626-13.653H27.279z"/>
<path style="fill:#777777;" d="M6.827,300.373c0-11.312,9.206-20.48,20.453-20.48h355.038c11.295,0,20.453,9.192,20.453,20.48
	c0,11.312-9.206,20.48-20.453,20.48H27.279C15.985,320.853,6.827,311.661,6.827,300.373z"/>
<path d="M382.321,327.68H27.279C12.24,327.68,0,315.43,0,300.373c0-15.056,12.24-27.307,27.279-27.307h355.041
	c15.039,0,27.279,12.25,27.279,27.307C409.6,315.43,397.36,327.68,382.321,327.68z M27.279,286.72
	c-7.513,0-13.626,6.124-13.626,13.653s6.113,13.653,13.626,13.653h355.041c7.513,0,13.626-6.124,13.626-13.653
	s-6.113-13.653-13.626-13.653H27.279z"/>
<g>
</g>
<g>
</g>
<g>
</g>
<g>
</g>
<g>
</g>
<g>
</g>
<g>
</g>
<g>
</g>
<g>
</g>
<g>
</g>
<g>
</g>
<g>
</g>
<g>
</g>
<g>
</g>
<g>
</g>
</svg>
